<?xml version="1.0" encoding="utf-8"?>
<!-- Generator: Adobe Illustrator 14.0.0, SVG Export Plug-In . SVG Version: 6.00 Build 43363)  -->
<!DOCTYPE svg PUBLIC "-//W3C//DTD SVG 1.1//EN" "http://www.w3.org/Graphics/SVG/1.1/DTD/svg11.dtd">
<svg version="1.1" id="NTT_DATA_Logo" xmlns="http://www.w3.org/2000/svg" xmlns:xlink="http://www.w3.org/1999/xlink" x="0px"
	 y="0px" width="168px" height="26px" viewBox="0 0 168 26" enable-background="new 0 0 168 26" xml:space="preserve">
<g>
	<g>
		<path fill="#6485C1" d="M25.474,6.042c0,0,7.146,0,7.686,0c0,0.561,0,18.92,0,18.92h5.443c0,0,0-18.36,0-18.92
			c0.541,0,7.687,0,7.687,0V1H25.474V6.042z M115.062,1h-13.704v5.081H114.7c1.957,0,2.721,0.895,2.721,3.188
			c0.001,0.011,0.001,0.651,0.001,0.846c-0.548,0-11.058,0-11.058,0c-4.203,0-6.295,2.104-6.295,6.854v1.134
			c0,4.888,2.167,6.854,6.522,6.854h16.217V9.207C122.809,3.171,120.815,1,115.062,1z M117.421,19.838c-0.549,0-10.26,0-10.26,0
			c-0.825,0-1.749-0.421-1.749-2.477c0-2.06,0.914-2.414,1.749-2.414c0,0,9.711,0,10.26,0V19.838z M160.252,1h-13.703v5.081h13.345
			c1.958,0,2.72,0.895,2.72,3.188c0.001,0.011,0.001,0.651,0.002,0.846c-0.549,0-11.058,0-11.058,0
			c-4.203,0-6.298,2.104-6.298,6.854v1.134c0,4.888,2.17,6.854,6.526,6.854H168V9.207C168,3.171,166.005,1,160.252,1z
			 M162.611,19.838c-0.549,0-10.26,0-10.26,0c-0.825,0-1.747-0.421-1.747-2.477c0-2.06,0.912-2.414,1.747-2.414c0,0,9.711,0,10.26,0
			V19.838z M48.021,6.042c0,0,7.146,0,7.687,0c0,0.561,0,18.92,0,18.92h5.445c0,0,0-18.36,0-18.92c0.54,0,7.687,0,7.687,0V1H48.021
			V6.042z M123.903,6.042c0,0,7.146,0,7.687,0c0,0.561,0,18.92,0,18.92h5.444c0,0,0-18.36,0-18.92c0.54,0,7.688,0,7.688,0V1h-20.816
			L123.903,6.042L123.903,6.042z M90.032,1H75.458v23.957h14.829c5.828,0,7.67-2.896,7.67-8.393V9.395
			C97.957,3.117,95.522,1,90.032,1z M92.399,16.67c0,2.294-0.774,3.188-2.73,3.188c0,0-8.221,0-8.766,0V6.102
			c0.545,0,8.766,0,8.766,0c1.956,0,2.73,0.894,2.73,3.188C92.399,9.301,92.399,16.67,92.399,16.67z M18.264,15.936
			c0,1.071,0.064,2.662,0.08,2.981c0.012,0.263,0.001,0.51-0.135,0.588c-0.153,0.09-0.308-0.055-0.413-0.253
			c-0.114-0.22-7.391-14.392-8.278-15.788C8.491,1.852,7.244,0.732,4.851,0.732C2.63,0.732,0,1.718,0,7.053v17.915h5.366
			c0,0,0-13.869,0-14.943c0-1.071-0.066-2.661-0.08-2.981C5.275,6.781,5.285,6.532,5.419,6.455C5.574,6.366,5.729,6.51,5.832,6.708
			c0.104,0.199,6.85,13.538,8.28,15.788c1.026,1.611,2.271,2.732,4.667,2.732c2.221,0,4.851-0.986,4.851-6.322V0.993h-5.364
			C18.264,0.993,18.264,14.861,18.264,15.936z"/>
	</g>
</g>
</svg>
